<svg viewBox="0 0 2000 1400" xmlns="http://www.w3.org/2000/svg"><path d="M0 0h2000v1400H0z"/><rect x="1090" y="1326" width="10" height="18" fill="#F4A9A8" rx="0" transform="matrix(.61269 .76897 -.78633 .64524 1298.18 -272.622)"/><rect x="196" y="1043" width="8" height="11" fill="#FBC6A4" rx="0" transform="matrix(-.0026 .97125 -1.0289 -.26024 1448.725 1148.138)"/><rect x="1286" y="1159" width="11" height="15" fill="#F4A9A8" rx="0" transform="matrix(-.93044 .0719 -.60382 -1.0281 3624.345 2594.94)"/><rect x="591" y="854" width="11" height="20" fill="#AFB9C8" rx="0" transform="matrix(.7414 .93828 -.72006 .43753 883.992 86.125)"/><rect x="971" y="488" width="8" height="12" fill="#AFB9C8" rx="0" transform="matrix(.74314 .8271 -.66913 .60092 580.984 -402.024)"/><rect x="375" y="1056" width="7" height="19" fill="#CE97B0" rx="0" transform="matrix(.34676 .98178 -.95116 .19084 1447.42 483.953)"/><rect x="704" y="1153" width="9" height="22" fill="#AFB9C8" rx="0" transform="matrix(-.90773 .2105 -.47997 -.99034 2067.01 2279.83)"/><rect x="1368" y="906" width="9" height="17" fill="#CE97B0" rx="0" transform="matrix(.8976 .4232 -.43807 .90755 472.192 -424.366)"/><rect x="1100" y="153" width="13" height="32" fill="#FBC6A4" rx="0" transform="matrix(.89756 .74326 -.53726 .66923 252.785 -785.83)"/><rect x="654" y="32" width="10" height="10" fill="#CE97B0" rx="0" transform="matrix(.69754 .81347 -.7225 .59102 229.766 -451.683)"/><rect x="1768" y="1044" width="12" height="32" fill="#AFB9C8" rx="0" transform="rotate(157 1774 1060)"/><rect x="1168" y="442" width="11" height="26" fill="#CE97B0" rx="0" transform="matrix(-.64626 .64524 -.77962 -.76897 2381.02 -54.979)"/><rect x="15" y="419" width="11" height="31" fill="#F4A9A8" rx="0" transform="matrix(.9032 .7318 -.52425 .68241 346.389 123.705)"/><rect x="611" y="883" width="8" height="20" fill="#F4A9A8" rx="0" transform="matrix(-.71934 .4884 -.69466 -.91853 1677.724 1589.235)"/><rect x="1943" y="1024" width="12" height="19" fill="#AFB9C8" rx="0" transform="matrix(-.77193 .73147 -.64728 -.6821 3972.43 346.847)"/><rect x="1665" y="562" width="9" height="20" fill="#CE97B0" rx="0" transform="matrix(.1356 .98354 -.98792 .20906 1876.417 -1014.122)"/><rect x="1560" y="1137" width="8" height="23" fill="#FBC6A4" rx="0" transform="matrix(.55636 .82228 -.82656 .57577 1508.06 -661.984)"/><rect x="1591" y="1359" width="10" height="16" fill="#CE97B0" rx="0" transform="matrix(.85986 .58814 -.51677 .80951 1004.647 -622.544)"/><rect x="1856" y="354" width="11" height="18" fill="#F4A9A8" rx="0" transform="matrix(.72297 .61604 -.69792 .7885 748.206 -1134.98)"/><rect x="1290" y="271" width="10" height="21" fill="#FBC6A4" rx="0" transform="matrix(.87017 .74472 -.50249 .71916 320.555 -538.357)"/><rect x="603" y="1288" width="13" height="23" fill="#FBC6A4" rx="0" transform="matrix(-.8538 .53194 -.51352 -.85129 1884.355 2028.204)"/><rect x="487" y="1247" width="7" height="17" fill="#F4A9A8" rx="0" transform="matrix(1.09031 .7522 -.27652 .7264 705.88 124.51)"/><rect x="1701" y="1020" width="9" height="9" fill="#CE97B0" rx="0" transform="matrix(.2422 .9461 -.97358 .32577 2156.751 -863.255)"/><rect x="1433" y="943" width="9" height="9" fill="#AFB9C8" rx="0" transform="matrix(-.93083 .50771 -.35737 -.87939 3126.291 797.41)"/><rect x="1051" y="868" width="10" height="14" fill="#F4A9A8" rx="0" transform="matrix(.48359 .8086 -.87231 .60932 1320.96 -679.278)"/><rect x="779" y="979" width="8" height="17" fill="#F4A9A8" rx="0" transform="matrix(-.83472 .25437 -.58339 -1.02023 2077.764 2050.215)"/><rect x="845" y="1074" width="13" height="20" fill="#CE97B0" rx="0" transform="matrix(.3053 1.02023 -1.05629 -.25437 2050.695 767.683)"/><rect x="532" y="800" width="13" height="35" fill="#CE97B0" rx="0" transform="matrix(.74965 .8151 -.6822 .5922 936.653 -171.67)"/><rect x="628" y="582" width="7" height="9" fill="#FBC6A4" rx="0" transform="matrix(-1.03702 -.21861 -.30445 -1.02849 1618.821 1532.946)"/><rect x="1733" y="406" width="13" height="33" fill="#CE97B0" rx="0" transform="matrix(.19617 1.03777 -.9499 .07257 1670.109 -914.559)"/><rect x="1499" y="838" width="8" height="12" fill="#FBC6A4" rx="0" transform="matrix(-.98163 0 -.04764 -1.01872 2858.916 1995.95)"/><rect x="102" y="547" width="13" height="21" fill="#FBC6A4" rx="0" transform="matrix(.61069 .8151 -.78316 .5922 428.914 152.233)"/><rect x="294" y="516" width="7" height="16" fill="#FBC6A4" rx="0" transform="matrix(.64987 .95996 -.84303 .29349 703.628 110.652)"/><rect x="1727" y="1051" width="7" height="10" fill="#CE97B0" rx="0" transform="matrix(-.64002 .47735 -.83877 -.93686 3951.232 1781.537)"/><rect x="992" y="584" width="7" height="19" fill="#F4A9A8" rx="0" transform="matrix(.09645 1.03512 -.96776 -.01807 1352.953 -159.494)"/><rect x="490" y="533" width="9" height="25" fill="#FBC6A4" rx="0" transform="matrix(.45906 1.04362 -.90183 .12814 784.104 120.2)"/><rect x="1698" y="421" width="8" height="11" fill="#FBC6A4" rx="0" transform="matrix(-.45225 .7524 -.92185 -.67747 2950.375 -295.587)"/><rect x="1872" y="1358" width="12" height="27" fill="#AFB9C8" rx="0" transform="matrix(-.59106 .70883 -.8197 -.70883 4398.56 881.153)"/><rect x="179" y="853" width="10" height="25" fill="#F4A9A8" rx="0" transform="matrix(1.001 .37101 -.08766 .96651 91.652 10.02)"/><rect x="1445" y="657" width="9" height="13" fill="#F4A9A8" rx="0" transform="matrix(-.04702 .99023 -1.00157 -.1746 2300.213 -808.34)"/><rect x="1193" y="51" width="13" height="17" fill="#AFB9C8" rx="0" transform="matrix(.726 .92252 -.76074 .41073 422.398 -902.927)"/><rect x="130" y="925" width="11" height="14" fill="#AFB9C8" rx="0" transform="matrix(.26379 1.0055 -.99452 0 1176.521 809.995)"/><rect x="863" y="540" width="9" height="11" fill="#FBC6A4" rx="0" transform="matrix(-.97554 -.18065 .00315 -1.0245 1628.58 1509.824)"/><rect x="1797" y="1040" width="10" height="24" fill="#F4A9A8" rx="0" transform="matrix(-.9813 .39676 -.20864 -.9347 3776.963 1002.61)"/><rect x="1154" y="241" width="9" height="9" fill="#F4A9A8" rx="0" transform="matrix(.63234 .85012 -.78118 .53121 634.827 -788.765)"/><rect x="50" y="305" width="11" height="16" fill="#F4A9A8" rx="0" transform="matrix(.05896 .9901 -1.01934 -.15682 459.919 303.252)"/><rect x="1655" y="169" width="10" height="27" fill="#F4A9A8" rx="0" transform="matrix(.86799 .65152 -.463 .80456 259.774 -601.06)"/><rect x="1512" y="75" width="12" height="25" fill="#CE97B0" rx="0" transform="matrix(-.69275 .44816 -.81097 -.91887 2727.738 -189.752)"/><rect x="1567" y="46" width="12" height="32" fill="#AFB9C8" rx="0" transform="matrix(.80213 .45461 -.6254 .89223 352.89 -790.863)"/><rect x="437" y="994" width="12" height="17" fill="#F4A9A8" rx="0" transform="matrix(-.78801 .46249 -.61566 -.90768 1409.29 1793.68)"/><rect x="368" y="597" width="13" height="13" fill="#FBC6A4" rx="0" transform="matrix(-.90623 .26024 -.46045 -.97125 1059.331 1131.547)"/><rect x="664" y="898" width="11" height="32" fill="#F4A9A8" rx="0" transform="matrix(.8247 .89395 -.68012 .47532 993.319 -12.91)"/><rect x="1928" y="1289" width="9" height="16" fill="#F4A9A8" rx="0" transform="matrix(-.67278 .49092 -.77167 -.9233 4365.509 2136.625)"/><rect x="692" y="684" width="12" height="21" fill="#CE97B0" rx="0" transform="matrix(.11338 .99497 -1.01898 -.12217 1523.945 36.047)"/><rect x="1309" y="992" width="7" height="20" fill="#FBC6A4" rx="0" transform="matrix(-.10442 .99513 -.99392 -.1046 2478.853 -245.138)"/><rect x="659" y="12" width="11" height="23" fill="#AFB9C8" rx="0" transform="matrix(-.20719 .9604 -.97391 -.31205 820.98 -513.965)"/><rect x="1871" y="391" width="7" height="15" fill="#AFB9C8" rx="0" transform="matrix(.80922 .87944 -.68853 .48748 791.564 -1247.248)"/><rect x="62" y="24" width="11" height="14" fill="#FBC6A4" rx="0" transform="matrix(.9873 .63903 -.34566 .78913 19.138 -24.696)"/><rect x="1705" y="950" width="13" height="24" fill="#FBC6A4" rx="0" transform="matrix(.69067 .87676 -.75772 .486 1515.874 -1125.772)"/><rect x="1305" y="70" width="12" height="24" fill="#AFB9C8" rx="0" transform="matrix(-.40466 .88322 -.90792 -.48957 1902 -851.5)"/><rect x="1511" y="1313" width="7" height="19" fill="#AFB9C8" rx="0" transform="matrix(-.42207 .85926 -.91019 -.5163 3571.962 598.047)"/><rect x="433" y="1054" width="10" height="14" fill="#AFB9C8" rx="0" transform="matrix(.99522 .75715 -.39268 .70606 647.771 97.603)"/><rect x="397" y="32" width="7" height="17" fill="#FBC6A4" rx="0" transform="matrix(-.57048 .8151 -.81238 -.5922 652.453 -212.785)"/><rect x="1491" y="581" width="9" height="11" fill="#F4A9A8" rx="0" transform="matrix(-.96008 .05394 -.2204 -1.0292 2993.475 1482.332)"/><rect x="1454" y="477" width="13" height="31" fill="#F4A9A8" rx="0" transform="matrix(-.72629 .3897 -.76843 -.96455 3044.03 817.17)"/><rect x="1585" y="1018" width="9" height="14" fill="#F4A9A8" rx="0" transform="matrix(1.09863 .53984 -.09424 .86392 347.667 -409.623)"/><rect x="329" y="69" width="8" height="14" fill="#AFB9C8" rx="0" transform="matrix(.2079 .98297 -.9769 .19107 342.105 -283.304)"/><rect x="1567" y="468" width="10" height="25" fill="#CE97B0" rx="0" transform="matrix(-1.01632 -.25298 -.12329 -1.01463 3296.1 1846.316)"/><rect x="726" y="1233" width="12" height="24" fill="#CE97B0" rx="0" transform="matrix(-.27138 .8407 -.99946 -.58866 2348.6 1531.49)"/><rect x="1725" y="261" width="9" height="11" fill="#FBC6A4" rx="0" transform="matrix(-1.01176 -.07014 -.21177 -1.00306 3614.815 836.901)"/><rect x="1475" y="1159" width="7" height="16" fill="#FBC6A4" rx="0" transform="matrix(-.78272 .71945 -.63408 -.69476 3255.79 888.277)"/><rect x="506" y="389" width="7" height="9" fill="#CE97B0" rx="0" transform="matrix(.99542 .44005 -.23157 .90223 155.02 -141.154)"/><rect x="583" y="337" width="8" height="21" fill="#FBC6A4" rx="0" transform="matrix(.35039 .9824 -.93056 .24494 772.895 -407.25)"/><rect x="1489" y="681" width="9" height="25" fill="#F4A9A8" rx="0" transform="matrix(.81458 .5922 -.56744 .8151 742.138 -939.595)"/><rect x="1947" y="284" width="7" height="7" fill="#FBC6A4" rx="0" transform="matrix(-.1075 .93382 -1.01371 -.49652 2501.875 -719.562)"/><rect x="1986" y="159" width="8" height="21" fill="#CE97B0" rx="0" transform="matrix(.87771 1.01006 -.75486 .27064 639.157 -1277.991)"/><rect x="1575" y="540" width="13" height="17" fill="#F4A9A8" rx="0" transform="matrix(-.42105 .92402 -.9035 -.39222 2764.45 -836.068)"/><rect x="22" y="154" width="7" height="13" fill="#AFB9C8" rx="0" transform="matrix(-.3131 .86392 -.96187 -.53984 196.536 230.07)"/><rect x="1693" y="590" width="10" height="10" fill="#AFB9C8" rx="0" transform="matrix(.6365 .89976 -.7871 .45845 1143.848 -966.938)"/><rect x="800" y="451" width="13" height="38" fill="#FBC6A4" rx="0" transform="matrix(-.83102 .48182 -.51254 -.90617 1613.68 693.508)"/><rect x="1258" y="1058" width="12" height="20" fill="#FBC6A4" rx="0" transform="matrix(-.4114 .76038 -.95752 -.66099 3044.395 968.016)"/><rect x="354" y="155" width="10" height="23" fill="#CE97B0" rx="0" transform="matrix(-.94604 .07257 -.25123 -1.03777 716.885 416.178)"/><rect x="1347" y="306" width="9" height="13" fill="#CE97B0" rx="0" transform="matrix(.93258 .39946 -.30636 .94107 113.213 -234.185)"/><rect x="279" y="58" width="9" height="26" fill="#CE97B0" rx="0" transform="matrix(.7976 .4851 -.6225 .87515 94.074 -138.563)"/><rect x="217" y="1052" width="7" height="11" fill="#AFB9C8" rx="0" transform="matrix(1.00228 .39288 -.18407 .92558 530.227 -31.102)"/><rect x="1675" y="895" width="11" height="29" fill="#FBC6A4" rx="0" transform="matrix(.65205 .60932 -.77588 .8086 1245.407 -1116.035)"/><rect x="265" y="992" width="13" height="19" fill="#AFB9C8" rx="0" transform="matrix(.91355 .58431 -.40674 .83448 430.82 59.898)"/><rect x="1712" y="438" width="13" height="30" fill="#FBC6A4" rx="0" transform="matrix(.7328 .85638 -.7098 .53513 853.725 -1019.586)"/><rect x="550" y="1349" width="13" height="23" fill="#CE97B0" rx="0" transform="matrix(-.88995 .51788 -.44984 -.86189 1413.56 2303.393)"/><rect x="1571" y="214" width="12" height="30" fill="#AFB9C8" rx="0" transform="matrix(.83395 .65696 -.56281 .75575 412.538 -897.444)"/><rect x="826" y="468" width="7" height="11" fill="#FBC6A4" rx="0" transform="matrix(-.92488 .25886 -.41141 -.96607 1860.073 730.691)"/><rect x="377" y="499" width="8" height="19" fill="#F4A9A8" rx="0" transform="matrix(.33823 1.04171 -.93037 .09114 703.401 181.747)"/><rect x="717" y="234" width="7" height="16" fill="#F4A9A8" rx="0" transform="matrix(.74488 .61576 -.67062 .78813 334.085 -404.956)"/><rect x="1254" y="81" width="8" height="22" fill="#F4A9A8" rx="0" transform="matrix(-.98905 .1397 -.12047 -.99405 2492.075 117.765)"/><rect x="942" y="596" width="10" height="26" fill="#FBC6A4" rx="0" transform="matrix(1.02311 .19319 .08713 .99386 18.243 -29.221)"/><rect x="1249" y="545" width="10" height="12" fill="#FBC6A4" rx="0" transform="matrix(.9397 .24325 -.34202 .97564 264.079 -423.42)"/><rect x="898" y="1102" width="12" height="17" fill="#CE97B0" rx="0" transform="matrix(.45458 .9707 -.89983 .27835 1811.865 -203.173)"/><rect x="1792" y="1007" width="8" height="23" fill="#AFB9C8" rx="0" transform="matrix(.00316 .98297 -1.01794 -.19107 3057.562 -646.44)"/><rect x="1512" y="1192" width="8" height="16" fill="#AFB9C8" rx="0" transform="matrix(.97058 .73469 -.35606 .76079 622.519 -304.728)"/><rect x="1274" y="1151" width="10" height="19" fill="#CE97B0" rx="0" transform="matrix(.17578 1.00244 -1.00677 -.05254 2401.358 51.24)"/><rect x="570" y="293" width="9" height="21" fill="#FBC6A4" rx="0" transform="matrix(.53024 .86603 -.84857 .5 538.014 -345.782)"/><rect x="397" y="779" width="8" height="21" fill="#CE97B0" rx="0" transform="matrix(.00004 1.0023 -.9977 .12307 1201.464 234.06)"/><rect x="1167" y="584" width="9" height="13" fill="#AFB9C8" rx="0" transform="matrix(-.3845 .88958 -.9197 -.473 2259.948 -316.178)"/><rect x="1552" y="184" width="10" height="10" fill="#CE97B0" rx="0" transform="matrix(.00669 .9204 -1.08945 -.4098 1876.023 -975.446)"/><rect x="494" y="852" width="8" height="8" fill="#AFB9C8" rx="0" transform="matrix(-.3148 .87462 -.96886 -.48481 1650.502 835.436)"/><rect x="134" y="631" width="13" height="35" fill="#CE97B0" rx="0" transform="matrix(-.92244 .20791 -.47 -.97815 748.666 1253.617)"/><rect x="418" y="1151" width="10" height="10" fill="#CE97B0" rx="0" transform="matrix(-.3833 .62931 -1.08037 -.83513 2251.67 1984.531)"/><rect x="740" y="332" width="9" height="19" fill="#AFB9C8" rx="0" transform="matrix(.68887 .87939 -.73944 .50771 508.928 -355.311)"/><rect x="1503" y="795" width="9" height="24" fill="#AFB9C8" rx="0" transform="matrix(.4532 .9323 -.88952 .37667 1525.296 -743.957)"/><rect x="365" y="419" width="7" height="18" fill="#AFB9C8" rx="0" transform="matrix(-.18937 .99313 -.97693 -.1573 883.628 90.624)"/><rect x="1887" y="232" width="9" height="15" fill="#AFB9C8" rx="0" transform="matrix(.57402 .7885 -.81977 .61604 999.045 -1465.524)"/><rect x="710" y="592" width="9" height="12" fill="#AFB9C8" rx="0" transform="matrix(-.79812 .60218 -.60148 -.79912 1664.457 620.665)"/><rect x="629" y="669" width="12" height="15" fill="#AFB9C8" rx="0" transform="matrix(.80733 .63279 -.58334 .78143 613.552 -320.696)"/><rect x="371" y="317" width="8" height="8" fill="#FBC6A4" rx="0" transform="matrix(.1449 1.00986 -.975 .10614 687.816 -157.893)"/><rect x="65" y="1198" width="11" height="32" fill="#F4A9A8" rx="0" transform="matrix(-.25035 .88632 -.99515 -.47126 1489.513 1729.798)"/><rect x="1194" y="1207" width="7" height="20" fill="#CE97B0" rx="0" transform="matrix(.96858 .27989 -.195 .9761 525.734 -517.222)"/><rect x="1946" y="321" width="12" height="19" fill="#AFB9C8" rx="0" transform="matrix(-.1044 .99386 -.98588 -.19319 2436.887 -1236.506)"/><rect x="198" y="1328" width="7" height="17" fill="#FBC6A4" rx="0" transform="matrix(.17167 1.03777 -.97561 -.07257 1422.126 1282.156)"/><rect x="337" y="1149" width="9" height="23" fill="#AFB9C8" rx="0" transform="matrix(-.56486 .7318 -.83975 -.68241 1732.195 1690.607)"/><rect x="1238" y="73" width="13" height="25" fill="#CE97B0" rx="0" transform="matrix(.48083 1.01856 -.97338 .01778 817.054 -941.714)"/><rect x="1709" y="229" width="11" height="24" fill="#F4A9A8" rx="0" transform="matrix(-1.03276 -.12508 -.41596 -1.01865 3780.112 1096.76)"/><rect x="443" y="631" width="9" height="9" fill="#CE97B0" rx="0" transform="matrix(.69098 .93773 -.7731 .39804 731.126 49.892)"/><rect x="1473" y="793" width="10" height="29" fill="#AFB9C8" rx="0" transform="matrix(-.5967 .87939 -.79265 -.50771 3028.652 -342.864)"/><rect x="1830" y="755" width="9" height="14" fill="#FBC6A4" rx="0" transform="matrix(.66798 .80303 -.74192 .60513 1157.762 -979.462)"/><rect x="453" y="1329" width="8" height="15" fill="#F4A9A8" rx="0" transform="matrix(-.50775 .7304 -.8433 -.75636 1738.299 2162.066)"/><rect x="49" y="1371" width="9" height="25" fill="#F4A9A8" rx="0" transform="matrix(-.08905 1.00598 -.98626 -.08801 1227.26 1458.964)"/><rect x="1521" y="1005" width="8" height="14" fill="#AFB9C8" rx="0" transform="matrix(-.29921 .7546 -1.05578 -.67945 3441.356 817.726)"/><rect x="1529" y="781" width="13" height="36" fill="#FBC6A4" rx="0" transform="matrix(-.10504 .99572 -1.01906 .13994 2421.406 -1003.132)"/><rect x="381" y="274" width="7" height="9" fill="#CE97B0" rx="0" transform="matrix(.10916 .92502 -1.14157 -.51274 786.079 198.025)"/><rect x="59" y="1130" width="9" height="12" fill="#FBC6A4" rx="0" transform="matrix(.97448 .57788 -.33876 .8253 567.608 169.556)"/><rect x="1879" y="1211" width="8" height="9" fill="#FBC6A4" rx="0" transform="matrix(.4958 .8336 -.86519 .56227 1751.821 -839.708)"/><rect x="255" y="943" width="12" height="26" fill="#AFB9C8" rx="0" transform="matrix(-.22986 .89893 -1.00032 -.43844 1514.523 1135.97)"/><rect x="1294" y="610" width="7" height="14" fill="#FBC6A4" rx="0" transform="matrix(-.43197 .6508 -1.02177 -.7756 2771.623 456.632)"/><rect x="724" y="687" width="10" height="22" fill="#F4A9A8" rx="0" transform="matrix(-.39166 .8636 -.9226 -.5189 1672.245 520.139)"/><rect x="697" y="96" width="9" height="12" fill="#F4A9A8" rx="0" transform="matrix(.6151 1.04171 -.90614 .09114 435.493 -423.587)"/><rect x="276" y="1329" width="10" height="29" fill="#CE97B0" rx="0" transform="matrix(-.17458 .99386 -.97224 -.19319 1441.19 1368.278)"/><rect x="949" y="576" width="8" height="14" fill="#F4A9A8" rx="0" transform="matrix(-.82145 .38039 -.59575 -.94149 2135.684 937.42)"/><rect x="1306" y="1237" width="7" height="13" fill="#AFB9C8" rx="0" transform="matrix(-.82426 .27373 -.57702 -1.02158 3135.974 2606.283)"/><rect x="557" y="703" width="13" height="24" fill="#F4A9A8" rx="0" transform="matrix(1.04011 .19093 .11326 .98223 135.838 -114.556)"/><rect x="1548" y="846" width="12" height="18" fill="#AFB9C8" rx="0" transform="matrix(.49603 .97039 -.85972 .33413 1475.837 -579.9)"/><rect x="670" y="823" width="7" height="10" fill="#FBC6A4" rx="0" transform="matrix(-.17347 .98655 -.9639 -.28289 1467.68 553.281)"/><rect x="1161" y="39" width="10" height="10" fill="#FBC6A4" rx="0" transform="matrix(-.96714 .12204 -.31757 -.9939 2303.39 -115.67)"/><rect x="1321" y="759" width="12" height="30" fill="#AFB9C8" rx="0" transform="matrix(.71227 .86814 -.74066 .50122 1107.927 -673.174)"/><rect x="1004" y="1299" width="7" height="16" fill="#F4A9A8" rx="0" transform="matrix(.19553 1.002 -.97746 .10531 2339.567 36.144)"/><rect x="1148" y="17" width="13" height="26" fill="#CE97B0" rx="0" transform="matrix(-.17671 .93984 -.9997 -.34207 1396.45 -1024.626)"/><rect x="1338" y="251" width="9" height="15" fill="#F4A9A8" rx="0" transform="matrix(.76478 .57674 -.64168 .82366 483.711 -869.788)"/><rect x="240" y="1135" width="11" height="22" fill="#CE97B0" rx="0" transform="matrix(1.1179 .6031 -.06159 .8613 370.075 90.65)"/><rect x="255" y="1233" width="11" height="30" fill="#AFB9C8" rx="0" transform="matrix(-.08744 .99634 -1.01441 .12233 1398.826 812.99)"/><rect x="619" y="730" width="10" height="23" fill="#AFB9C8" rx="0" transform="matrix(-.999 .1397 -.04967 -.99405 1143.838 1446.006)"/><rect x="88" y="1095" width="10" height="15" fill="#AFB9C8" rx="0" transform="matrix(.24933 1 -1.0715 -.28675 1532.667 1352.304)"/><rect x="782" y="467" width="8" height="23" fill="#FBC6A4" rx="0" transform="matrix(-.79536 .7756 -.62195 -.6508 1690.202 55.801)"/><rect x="66" y="394" width="9" height="15" fill="#FBC6A4" rx="0" transform="matrix(.63788 .86113 -.76267 .5381 450.693 112.314)"/><rect x="1538" y="1369" width="10" height="19" fill="#F4A9A8" rx="0" transform="matrix(.6373 .7283 -.75762 .70332 1703.255 -959.187)"/><rect x="301" y="196" width="7" height="10" fill="#F4A9A8" rx="0" transform="matrix(.50666 1.0249 -1.00226 -.05371 439.828 -29.986)"/><rect x="194" y="874" width="11" height="26" fill="#FBC6A4" rx="0" transform="matrix(.306 1.03134 -.94284 .09023 941.913 654.67)"/><rect x="614" y="255" width="8" height="15" fill="#F4A9A8" rx="0" transform="matrix(1.02607 .67332 -.30483 .77456 150.033 -214.255)"/><rect x="396" y="234" width="11" height="19" fill="#FBC6A4" rx="0" transform="matrix(-.32827 .89318 -.95233 -.4551 784.184 23.78)"/><rect x="1136" y="1094" width="8" height="17" fill="#FBC6A4" rx="0" transform="matrix(.80004 .81358 -.62626 .61308 1011 -279.311)"/><rect x="665" y="735" width="12" height="22" fill="#AFB9C8" rx="0" transform="matrix(.98693 .24933 -.0524 1 0 0)"/><rect x="725" y="826" width="9" height="9" fill="#F4A9A8" rx="0" transform="matrix(-.83918 .5003 -.54529 -.86655 1864.97 1159.725)"/><rect x="200" y="828" width="13" height="38" fill="#FBC6A4" rx="0" transform="matrix(-.34163 .95864 -.9387 -.29309 1086.656 882.845)"/><rect x="1790" y="493" width="11" height="14" fill="#F4A9A8" rx="0" transform="matrix(.69537 .76897 -.71696 .64524 959.754 -1360.394)"/><rect x="124" y="1123" width="9" height="23" fill="#FBC6A4" rx="0" transform="matrix(1.0049 .05234 .07008 .99878 39.346 -3.101)"/><rect x="741" y="417" width="8" height="10" fill="#FBC6A4" rx="0" transform="matrix(.98354 .30902 -.20906 .95106 144.842 -209.564)"/><rect x="437" y="664" width="9" height="19" fill="#F4A9A8" rx="0" transform="matrix(.01727 1.01006 -.99467 -.27064 1089.672 544.818)"/><rect x="803" y="914" width="8" height="8" fill="#F4A9A8" rx="0" transform="matrix(1.001 .0351 .16805 1.0049 99.65 -117.632)"/><rect x="151" y="192" width="10" height="14" fill="#AFB9C8" rx="0" transform="matrix(.96385 .20947 -.23935 .9855 69.005 -48.945)"/><rect x="1296" y="628" width="11" height="15" fill="#F4A9A8" rx="0" transform="matrix(-.93216 .10773 -.4137 -1.02497 2844.737 1471.159)"/><rect x="12" y="1343" width="11" height="13" fill="#FBC6A4" rx="0" transform="matrix(1.01562 .6355 -.31937 .78478 767.797 281.773)"/><rect x="1259" y="181" width="11" height="30" fill="#CE97B0" rx="0" transform="matrix(-.90656 .20791 -.54471 -.97815 2585.095 124.813)"/><rect x="22" y="539" width="13" height="36" fill="#AFB9C8" rx="0" transform="matrix(-.17059 .87401 -1.03756 -.54614 700.627 843.398)"/><rect x="394" y="90" width="9" height="17" fill="#AFB9C8" rx="0" transform="matrix(.06718 .97446 -1.04934 -.33553 506.424 -157.417)"/><rect x="1782" y="751" width="13" height="24" fill="#F4A9A8" rx="0" transform="matrix(.19488 .99893 -1.0147 -.06985 2396.278 -876.563)"/><rect x="1147" y="1088" width="13" height="30" fill="#F4A9A8" rx="0" transform="matrix(-.87023 .47532 -.46716 -.89395 2818.351 1358.049)"/><rect x="675" y="829" width="10" height="21" fill="#FBC6A4" rx="0" transform="matrix(.99492 .2598 -.13592 .96962 283.36 -210.654)"/><rect x="1246" y="239" width="10" height="10" fill="#AFB9C8" rx="0" transform="matrix(.90172 .26281 -.43974 .98083 229.835 -544.684)"/><rect x="151" y="948" width="8" height="13" fill="#CE97B0" rx="0" transform="matrix(.97728 .32492 -.06993 1 0 0)"/><rect x="1488" y="779" width="7" height="9" fill="#F4A9A8" rx="0" transform="matrix(-.41721 .73044 -.96615 -.70537 3074.164 509.706)"/><rect x="1390" y="1327" width="8" height="18" fill="#CE97B0" rx="0" transform="matrix(-1.03178 -.14478 -.43457 -1.03018 3910.604 3313.863)"/><rect x="699" y="823" width="13" height="29" fill="#FBC6A4" rx="0" transform="matrix(.95362 .26076 -.27594 .97318 133.947 -74.882)"/><rect x="519" y="1043" width="11" height="11" fill="#AFB9C8" rx="0" transform="matrix(-.87939 .65766 -.50892 -.75655 1395.107 1460.125)"/><rect x="1034" y="1003" width="9" height="18" fill="#F4A9A8" rx="0" transform="matrix(.28712 1 -.94419 .19438 1589.649 -21.349)"/><rect x="694" y="160" width="8" height="23" fill="#CE97B0" rx="0" transform="matrix(-.77178 .54472 -.64735 -.8388 1367.033 -52.678)"/><rect x="1523" y="183" width="12" height="30" fill="#CE97B0" rx="0" transform="matrix(.60182 1.00586 -.79864 .32682 766.955 -878.19)"/><rect x="1596" y="742" width="10" height="16" fill="#AFB9C8" rx="0" transform="matrix(1.04468 .37552 -.07728 .92945 201.329 -436.343)"/><rect x="51" y="647" width="11" height="22" fill="#F4A9A8" rx="0" transform="matrix(.98163 .20794 -.19079 .9783 149.52 1.546)"/><rect x="1599" y="1101" width="11" height="29" fill="#FBC6A4" rx="0" transform="matrix(.32304 .99954 -.98918 .0349 2522.083 -555.21)"/><rect x="1480" y="833" width="10" height="24" fill="#F4A9A8" rx="0" transform="matrix(.971 .3678 -.18939 .95814 140.856 -167.962)"/><rect x="1935" y="147" width="7" height="11" fill="#FBC6A4" rx="0" transform="matrix(-.98892 .22526 -.15584 -.9757 3848.088 -33.778)"/><rect x="1630" y="122" width="11" height="15" fill="#AFB9C8" rx="0" transform="matrix(-.70716 .63716 -.69618 -.78683 2849.922 -1069.726)"/><rect x="178" y="774" width="12" height="13" fill="#F4A9A8" rx="0" transform="matrix(-.96878 .12189 -.31421 -.9927 745.687 1536.085)"/><rect x="1134" y="41" width="13" height="27" fill="#FBC6A4" rx="0" transform="matrix(-.2841 .86113 -.98374 -.5381 1544.992 -697.192)"/><rect x="1404" y="1212" width="10" height="21" fill="#CE97B0" rx="0" transform="matrix(-.60975 .56045 -.80847 -.89691 3316.12 2014.455)"/><rect x="11" y="529" width="8" height="9" fill="#CE97B0" rx="0" transform="matrix(-.84709 .461 -.50672 -.90475 241.691 1011.915)"/><rect x="493" y="684" width="10" height="28" fill="#FBC6A4" rx="0" transform="matrix(1.0571 .69723 -.30064 .7477 411.915 -65.26)"/><rect x="1153" y="248" width="9" height="17" fill="#AFB9C8" rx="0" transform="matrix(.05088 1.00492 -1.00135 -.12339 1379.227 -1058.374)"/><rect x="76" y="457" width="11" height="22" fill="#FBC6A4" rx="0" transform="matrix(-.29894 .87796 -.9733 -.48666 619.706 631.334)"/><rect x="711" y="1014" width="10" height="21" fill="#FBC6A4" rx="0" transform="matrix(.97469 -.15885 .1414 1.00293 15.532 -15.512)"/><rect x="628" y="864" width="11" height="29" fill="#CE97B0" rx="0" transform="matrix(-.61644 .56659 -.81572 -.87247 1814.756 1467.683)"/><rect x="581" y="680" width="12" height="29" fill="#CE97B0" rx="0" transform="matrix(.29765 1.0379 -.92694 .12744 964.182 176.213)"/><rect x="288" y="990" width="13" height="21" fill="#FBC6A4" rx="0" transform="matrix(.0337 .98354 -1.0239 -.20906 1453.952 950.963)"/><rect x="736" y="1175" width="13" height="32" fill="#FBC6A4" rx="0" transform="matrix(.36116 1.01626 -1.0542 -.19754 2128.46 870.653)"/><rect x="1058" y="1224" width="10" height="11" fill="#FBC6A4" rx="0" transform="matrix(.17332 1.00168 -.98316 .08764 2064.136 168.69)"/><rect x="574" y="1348" width="13" height="30" fill="#CE97B0" rx="0" transform="matrix(-1.00123 .03492 .03535 -1 968.15 2726)"/><rect x="135" y="845" width="10" height="12" fill="#F4A9A8" rx="0" transform="matrix(.01745 .99954 -1.00107 -.0349 1019.267 743.212)"/><rect x="11" y="777" width="12" height="22" fill="#FBC6A4" rx="0" transform="matrix(.38722 .95481 -.914 .32877 675.377 515.088)"/><rect x="1644" y="106" width="10" height="12" fill="#AFB9C8" rx="0" transform="matrix(.97135 .83513 -.46546 .62931 219.144 -831.457)"/><rect x="1098" y="352" width="12" height="30" fill="#AFB9C8" rx="0" transform="matrix(-.14907 .90475 -1.02932 -.461 1735.296 -267.996)"/><rect x="148" y="970" width="8" height="22" fill="#FBC6A4" rx="0" transform="matrix(.6176 .90475 -.79059 .461 851.283 418.044)"/><rect x="1213" y="1295" width="7" height="17" fill="#F4A9A8" rx="0" transform="matrix(.12222 .99677 -.97948 .19375 2459.038 -376.13)"/><rect x="1189" y="384" width="10" height="11" fill="#FBC6A4" rx="0" transform="matrix(-.89112 .3148 -.43403 -.96886 2394.475 623.088)"/><rect x="1009" y="1022" width="7" height="13" fill="#AFB9C8" rx="0" transform="matrix(.6773 1.02451 -.8197 .23653 1384.8 76.893)"/><rect x="590" y="748" width="13" height="15" fill="#FBC6A4" rx="0" transform="matrix(.97262 .19375 -.15754 .99677 14.394 -7.954)"/><rect x="705" y="471" width="12" height="15" fill="#FBC6A4" rx="0" transform="matrix(-.56212 .76936 -.79365 -.69273 1396.403 453.47)"/><rect x="467" y="581" width="8" height="16" fill="#AFB9C8" rx="0" transform="matrix(-.5201 .9205 -.8656 -.39073 1143.022 385.583)"/><rect x="303" y="1380" width="7" height="14" fill="#F4A9A8" rx="0" transform="matrix(1.07197 .32636 .04915 .94783 367.4 -6.234)"/><rect x="1844" y="1121" width="12" height="15" fill="#FBC6A4" rx="0" transform="matrix(-.9116 .07335 -.59756 -1.0489 4578.43 2777.595)"/><rect x="1061" y="322" width="10" height="15" fill="#AFB9C8" rx="0" transform="matrix(-.78377 .63405 -.6093 -.78298 2037.557 42.487)"/><rect x="751" y="1320" width="8" height="17" fill="#CE97B0" rx="0" transform="matrix(.99726 -.01752 -.05224 1.00367 93.503 -57.699)"/><rect x="1474" y="700" width="10" height="10" fill="#F4A9A8" rx="0" transform="matrix(.75428 .65646 -.65563 .75517 848.456 -849.945)"/><rect x="1577" y="1090" width="12" height="15" fill="#FBC6A4" rx="0" transform="matrix(-.39602 .99449 -.93571 -.17535 3160.297 -506.796)"/><rect x="66" y="112" width="7" height="13" fill="#CE97B0" rx="0" transform="matrix(.87853 .80648 -.57793 .60773 104.191 .201)"/><rect x="978" y="653" width="11" height="11" fill="#F4A9A8" rx="0" transform="matrix(-.9846 .29309 -.19147 -.95864 2057.351 932.742)"/><rect x="1187" y="530" width="10" height="10" fill="#CE97B0" rx="0" transform="matrix(-.00806 1.01295 -.98665 -.07083 1804.459 -844.726)"/><rect x="279" y="932" width="8" height="14" fill="#F4A9A8" rx="0" transform="matrix(.6517 .86655 -.77773 .5003 962.217 233.862)"/><rect x="1344" y="784" width="7" height="12" fill="#FBC6A4" rx="0" transform="matrix(-.951 .17367 -.36448 -.98496 3060.365 1357.61)"/><rect x="782" y="1033" width="10" height="23" fill="#AFB9C8" rx="0" transform="matrix(1.0049 .05234 .07008 .99878 34.18 -26.185)"/><rect x="326" y="232" width="8" height="9" fill="#CE97B0" rx="0" transform="matrix(-.2581 1.00492 -.96342 -.12339 646.235 -118.209)"/><rect x="1173" y="352" width="10" height="20" fill="#CE97B0" rx="0" transform="matrix(-.95983 .58073 -.3512 -.82936 2417.378 -208.443)"/><rect x="1036" y="729" width="8" height="8" fill="#CE97B0" rx="0" transform="matrix(.3594 .95689 -.93518 .29255 1424.942 -512.92)"/><rect x="1099" y="953" width="7" height="18" fill="#F4A9A8" rx="0" transform="matrix(.0567 .98223 -1.02912 -.19093 2294.81 24.266)"/><rect x="1873" y="1241" width="12" height="13" fill="#FBC6A4" rx="0" transform="matrix(.9971 .08749 -.0331 1 198.965 -328.782)"/><rect x="1645" y="438" width="9" height="9" fill="#CE97B0" rx="0" transform="matrix(.26751 1.02284 -1.03453 -.21741 1832.968 -644.169)"/><rect x="1268" y="854" width="9" height="15" fill="#FBC6A4" rx="0" transform="matrix(-.7046 .66247 -.6698 -.7895 2538.288 1015.933)"/><rect x="1931" y="506" width="11" height="32" fill="#F4A9A8" rx="0" transform="matrix(.45186 .91858 -.88746 .40898 1486.704 -1266.777)"/><rect x="563" y="1042" width="9" height="14" fill="#FBC6A4" rx="0" transform="matrix(.31514 .99087 -.96492 .13926 1619.618 320.781)"/><rect x="31" y="1274" width="9" height="9" fill="#F4A9A8" rx="0" transform="matrix(1.01584 .50069 -.23777 .86721 622.656 153.853)"/><rect x="1982" y="1342" width="9" height="14" fill="#FBC6A4" rx="0" transform="matrix(-.13952 .99924 -.99345 -.05237 3536.765 -634.713)"/><rect x="1065" y="29" width="10" height="15" fill="#AFB9C8" rx="0" transform="matrix(-.12118 1.00967 -.9883 -.01762 1231.755 -1193.586)"/><rect x="1826" y="456" width="9" height="19" fill="#FBC6A4" rx="0" transform="matrix(-.55454 .55719 -.90727 -.8917 3435.846 455.411)"/><rect x="1396" y="45" width="9" height="12" fill="#FBC6A4" rx="0" transform="matrix(-.19023 .97758 -.9755 -.24374 1701.075 -1133.714)"/><rect x="702" y="746" width="13" height="19" fill="#F4A9A8" rx="0" transform="matrix(1.0189 .06976 .23523 .99756 39.88 -47.582)"/><rect x="1644" y="1036" width="8" height="19" fill="#FBC6A4" rx="0" transform="matrix(.765 .59003 -.64188 .8121 1074.088 -920.11)"/><rect x="77" y="1052" width="8" height="15" fill="#F4A9A8" rx="0" transform="matrix(.14054 1 -1.0403 -.28675 1323.98 1305.533)"/><rect x="1086" y="439" width="11" height="19" fill="#FBC6A4" rx="0" transform="matrix(.79936 .91458 -.6503 .50696 579.1 -443.434)"/><rect x="481" y="958" width="12" height="12" fill="#FBC6A4" rx="0" transform="matrix(.94047 .60633 -.4012 .80463 541.456 -47.155)"/><rect x="1903" y="208" width="8" height="17" fill="#F4A9A8" rx="0" transform="matrix(.71514 .7283 -.68244 .70332 674.34 -1626.688)"/><rect x="1897" y="319" width="12" height="30" fill="#F4A9A8" rx="0" transform="matrix(-.19407 .9323 -.99422 -.37667 2651.108 -1114.329)"/><rect x="1906" y="946" width="9" height="18" fill="#F4A9A8" rx="0" transform="matrix(-.17471 .86073 -1.04834 -.55897 3516.824 285.459)"/><rect x="1303" y="1333" width="8" height="17" fill="#CE97B0" rx="0" transform="matrix(-.093 .99034 -.98998 -.2105 3060.61 122.507)"/><rect x="1725" y="784" width="9" height="21" fill="#AFB9C8" rx="0" transform="matrix(.804 .83918 -.66952 .54497 1123.702 -1150.24)"/><rect x="1172" y="921" width="9" height="15" fill="#AFB9C8" rx="0" transform="matrix(-.79317 .79102 -.6445 -.61801 2592.053 468.759)"/><rect x="853" y="946" width="12" height="24" fill="#CE97B0" rx="0" transform="matrix(.54385 .85012 -.83647 .53121 1271.735 -341.222)"/><rect x="624" y="1284" width="7" height="13" fill="#FBC6A4" rx="0" transform="matrix(-.14418 .93486 -1.01433 -.35886 2260.316 1199.869)"/><rect x="1035" y="707" width="9" height="26" fill="#CE97B0" rx="0" transform="matrix(.60722 .88537 -.77889 .51117 903.298 -347.435)"/><rect x="847" y="1125" width="10" height="28" fill="#AFB9C8" rx="0" transform="matrix(.25603 1.05183 -.92382 .11055 1459.23 410.292)"/><rect x="1674" y="218" width="13" height="17" fill="#AFB9C8" rx="0" transform="matrix(.02983 .9573 -1.05487 -.32963 1974.013 -1041.425)"/><rect x="1889" y="424" width="8" height="16" fill="#FBC6A4" rx="0" transform="matrix(.40985 .99315 -.95657 .12194 1649.28 -1566.82)"/><rect x="1118" y="957" width="7" height="16" fill="#F4A9A8" rx="0" transform="matrix(.833 .79307 -.56196 .66546 751.678 -266.092)"/><rect x="1829" y="331" width="12" height="20" fill="#F4A9A8" rx="0" transform="matrix(.30008 .984 -.93585 .26366 1505.427 -1197.87)"/><rect x="1065" y="235" width="11" height="11" fill="#AFB9C8" rx="0" transform="matrix(-.32557 .90554 -.94552 -.44166 1646.418 -491.224)"/><rect x="499" y="522" width="13" height="15" fill="#FBC6A4" rx="0" transform="matrix(1.0301 .32801 -.05703 .95262 108.678 -78.655)"/><rect x="774" y="1082" width="9" height="24" fill="#CE97B0" rx="0" transform="matrix(.93777 .5634 -.38467 .83526 793.676 -353.967)"/><rect x="569" y="1067" width="13" height="18" fill="#FBC6A4" rx="0" transform="matrix(-.68058 .7211 -.72955 -.69635 1693.67 1450.53)"/><rect x="1355" y="107" width="8" height="11" fill="#FBC6A4" rx="0" transform="matrix(-.92437 .32681 -.37531 -.94913 2656.536 -343.757)"/><rect x="1891" y="1193" width="10" height="20" fill="#AFB9C8" rx="0" transform="matrix(.89397 .69508 -.51295 .71978 1144.077 -1046.978)"/><rect x="1235" y="674" width="9" height="10" fill="#FBC6A4" rx="0" transform="matrix(1.01367 .06976 .16055 .99756 30.804 -84.81)"/><rect x="1094" y="396" width="10" height="11" fill="#F4A9A8" rx="0" transform="matrix(.62687 1.03967 -.93996 .0363 1006.554 -440.536)"/><rect x="447" y="1343" width="7" height="20" fill="#F4A9A8" rx="0" transform="matrix(.95312 .57577 -.37561 .82228 956.132 -58.343)"/><rect x="1890" y="1102" width="10" height="13" fill="#F4A9A8" rx="0" transform="matrix(-.01755 .9962 -1.00536 .08716 2926.183 -875.901)"/><rect x="37" y="1095" width="13" height="15" fill="#CE97B0" rx="0" transform="matrix(.37805 1.0275 -1.03312 -.16274 1444.065 1249.697)"/><rect x="1590" y="524" width="13" height="15" fill="#F4A9A8" rx="0" transform="matrix(-.3111 .88552 -.95683 -.49085 2629.114 -368.487)"/><rect x="65" y="962" width="7" height="15" fill="#CE97B0" rx="0" transform="matrix(.97051 .83756 -.48883 .60852 704.007 340.522)"/><rect x="981" y="222" width="11" height="26" fill="#FBC6A4" rx="0" transform="matrix(-.05298 .98354 -1.00548 -.20906 1292.805 -582.444)"/><rect x="610" y="509" width="11" height="24" fill="#F4A9A8" rx="0" transform="matrix(.75806 .58242 -.63433 .83179 515.488 -379.374)"/><rect x="1380" y="76" width="13" height="31" fill="#CE97B0" rx="0" transform="matrix(-.95194 .1051 -.45724 -1 2807.353 183)"/><rect x="1586" y="405" width="8" height="11" fill="#AFB9C8" rx="0" transform="matrix(-.96593 0 -.09485 -1.03528 3032.262 1261.52)"/><rect x="1504" y="924" width="8" height="18" fill="#CE97B0" rx="0" transform="matrix(.8864 .63018 -.49223 .77821 754.833 -664.359)"/><rect x="1400" y="874" width="7" height="20" fill="#CE97B0" rx="0" transform="matrix(.15627 .9854 -.98725 .17375 2008.012 -603.607)"/><rect x="1904" y="959" width="8" height="23" fill="#AFB9C8" rx="0" transform="matrix(.95746 .34207 -.29275 .93984 400.325 -560.98)"/><rect x="444" y="866" width="7" height="20" fill="#AFB9C8" rx="0" transform="matrix(.07064 .97758 -1.00532 .24374 1253.52 170.07)"/><rect x="1643" y="765" width="13" height="24" fill="#F4A9A8" rx="0" transform="matrix(.54634 .69635 -.8703 .7211 1307.855 -1047.273)"/><rect x="972" y="709" width="10" height="19" fill="#F4A9A8" rx="0" transform="matrix(.81013 .62932 -.5886 .77715 646.064 -454.725)"/><rect x="1420" y="449" width="7" height="11" fill="#FBC6A4" rx="0" transform="matrix(-.9449 .32801 -.30449 -.95262 2818.506 595.323)"/><rect x="998" y="62" width="7" height="15" fill="#AFB9C8" rx="0" transform="matrix(.964 .17581 -.22077 .99708 42.033 -334.496)"/><rect x="1849" y="933" width="10" height="20" fill="#AFB9C8" rx="0" transform="matrix(.14009 1.01 -.9999 -.07063 2601.99 -569.293)"/><rect x="1060" y="1272" width="8" height="15" fill="#AFB9C8" rx="0" transform="matrix(-.23086 .90755 -.99421 -.4232 2793.219 911.11)"/><rect x="663" y="28" width="8" height="8" fill="#FBC6A4" rx="0" transform="matrix(-.19064 .97949 -.98042 -.2082 823.191 -579.702)"/><rect x="1155" y="213" width="9" height="17" fill="#CE97B0" rx="0" transform="matrix(.98918 .50491 -.26723 .87454 118.943 -394.7)"/><rect x="1475" y="1354" width="12" height="26" fill="#FBC6A4" rx="0" transform="matrix(-.49045 .87682 -.85733 -.50623 3558.673 525.881)"/><rect x="1614" y="1136" width="8" height="11" fill="#CE97B0" rx="0" transform="matrix(.85576 .47062 -.51541 .8851 667.673 -517.164)"/><rect x="1155" y="804" width="8" height="23" fill="#CE97B0" rx="0" transform="matrix(-1.0425 -.26925 -.1766 -1.00485 2693.07 2279.355)"/><rect x="1551" y="1243" width="10" height="10" fill="#AFB9C8" rx="0" transform="matrix(1.01118 .45427 -.21679 .89155 553.818 -517.157)"/><rect x="1644" y="833" width="8" height="11" fill="#F4A9A8" rx="0" transform="matrix(.78477 .84465 -.59255 .6365 777.868 -519.736)"/><rect x="809" y="833" width="12" height="27" fill="#AFB9C8" rx="0" transform="matrix(-1.0266 .44384 -.14824 -.91 1663.54 1126.004)"/><rect x="184" y="440" width="7" height="15" fill="#FBC6A4" rx="0" transform="matrix(-.56024 .55483 -.93964 -.85437 851.806 762.245)"/><rect x="1768" y="380" width="10" height="23" fill="#CE97B0" rx="0" transform="matrix(-1.0012 .58073 -.29213 -.82936 3642.966 -594.247)"/><rect x="1570" y="850" width="10" height="15" fill="#F4A9A8" rx="0" transform="matrix(-.69118 .67945 -.70413 -.7546 3401.264 156.724)"/><rect x="937" y="225" width="13" height="35" fill="#AFB9C8" rx="0" transform="matrix(.91234 .20947 -.48165 .9855 179.447 -309.967)"/><rect x="830" y="1284" width="7" height="19" fill="#F4A9A8" rx="0" transform="matrix(.06954 .99315 -.99836 .12194 1951.196 337.08)"/><rect x="1769" y="1060" width="9" height="12" fill="#AFB9C8" rx="0" transform="matrix(.67005 .77715 -.74416 .62932 1434.315 -983.124)"/><rect x="240" y="1251" width="11" height="20" fill="#AFB9C8" rx="0" transform="matrix(.95564 .6297 -.40793 .77762 841.834 134.402)"/><rect x="1595" y="380" width="13" height="19" fill="#CE97B0" rx="0" transform="matrix(-1.00519 .12189 -.01768 -.9927 3186.56 552.998)"/><rect x="1644" y="509" width="13" height="18" fill="#FBC6A4" rx="0" transform="matrix(.9386 .59102 -.40012 .81347 393.514 -705.388)"/><rect x="1979" y="1002" width="13" height="33" fill="#AFB9C8" rx="0" transform="matrix(.88262 .72875 -.48959 .72875 784.567 -675.636)"/><rect x="692" y="1246" width="9" height="15" fill="#FBC6A4" rx="0" transform="matrix(-.01786 .99023 -1.00671 -.1746 2040.386 855.875)"/><rect x="1138" y="933" width="13" height="20" fill="#CE97B0" rx="0" transform="matrix(.44002 .93198 -.8862 .3956 1638.502 -677.973)"/><rect x="447" y="621" width="8" height="20" fill="#FBC6A4" rx="0" transform="matrix(-.82247 .29688 -.67818 -.97106 1413.899 1189.367)"/><rect x="95" y="205" width="9" height="18" fill="#CE97B0" rx="0" transform="matrix(.97165 .23087 -.12278 1 0 0)"/><rect x="910" y="1320" width="12" height="17" fill="#FBC6A4" rx="0" transform="matrix(-1.01658 .12233 .10513 -.99634 1532.085 2459.936)"/><rect x="278" y="297" width="13" height="25" fill="#CE97B0" rx="0" transform="matrix(.51229 .81697 -.85184 .59356 416.524 -146.619)"/><rect x="847" y="410" width="7" height="17" fill="#CE97B0" rx="0" transform="matrix(.49306 .96955 -.8322 .39172 684.068 -310.013)"/><rect x="1630" y="383" width="13" height="33" fill="#CE97B0" rx="0" transform="matrix(-.95323 .44166 -.30976 -.90554 3316.741 -162.454)"/><rect x="831" y="1040" width="13" height="37" fill="#CE97B0" rx="0" transform="matrix(-.7624 .8215 -.66338 -.59685 2130.456 854.59)"/><rect x="1305" y="815" width="11" height="15" fill="#FBC6A4" rx="0" transform="matrix(-.38204 .80562 -.9428 -.62942 2663.612 562.99)"/><rect x="1575" y="811" width="11" height="17" fill="#AFB9C8" rx="0" transform="matrix(-.9185 .20842 -.4768 -.98054 3667.053 1183.123)"/><rect x="1371" y="528" width="7" height="13" fill="#CE97B0" rx="0" transform="matrix(-.1585 .92107 -1.01842 -.39097 2276.213 -570.53)"/><rect x="855" y="627" width="13" height="30" fill="#FBC6A4" rx="0" transform="matrix(.97437 .39676 -.22495 .9347 166.499 -147.983)"/><rect x="642" y="1241" width="11" height="24" fill="#F4A9A8" rx="0" transform="matrix(-.0346 .99163 -1.0133 .13936 1789.894 402.364)"/><rect x="51" y="582" width="13" height="26" fill="#CE97B0" rx="0" transform="matrix(.98424 -.12339 .08849 1.00492 20.194 -4.939)"/><rect x="1253" y="71" width="8" height="9" fill="#CE97B0" rx="0" transform="matrix(.69155 .94487 -.80665 .3439 504.256 -1006.049)"/><rect x="178" y="161" width="9" height="10" fill="#CE97B0" rx="0" transform="matrix(.2165 1.05746 -.94944 -.01846 280.575 38.917)"/><rect x="1361" y="1342" width="12" height="24" fill="#AFB9C8" rx="0" transform="matrix(-.13908 .98616 -.98951 -.17389 2872.04 313.004)"/><rect x="41" y="1259" width="10" height="12" fill="#F4A9A8" rx="0" transform="matrix(.71278 .79102 -.7073 .61801 1175.985 442.802)"/><rect x="903" y="702" width="11" height="27" fill="#CE97B0" rx="0" transform="matrix(-.94616 .19107 -.36611 -.98297 2184.229 1197.618)"/><rect x="596" y="785" width="11" height="32" fill="#F4A9A8" rx="0" transform="matrix(.98905 .05285 -.04908 1.00844 146.59 -123.088)"/><rect x="862" y="36" width="8" height="17" fill="#FBC6A4" rx="0" transform="matrix(-.03018 1.002 -.99484 -.10531 924.39 -924.869)"/><rect x="837" y="1023" width="8" height="12" fill="#AFB9C8" rx="0" transform="matrix(-1.0181 .25945 -.05473 -.96828 1617.175 1748.358)"/><rect x="1659" y="418" width="12" height="30" fill="#FBC6A4" rx="0" transform="matrix(.63027 .90686 -.8088 .42288 1061.289 -1201.884)"/><rect x="1604" y="560" width="8" height="9" fill="#F4A9A8" rx="0" transform="matrix(-.21797 .87632 -1.01017 -.52654 2640.015 -205.592)"/><rect x="1151" y="1371" width="8" height="22" fill="#CE97B0" rx="0" transform="matrix(-.83387 .37483 -.60394 -.92775 3255.088 2271.548)"/><rect x="54" y="161" width="8" height="19" fill="#AFB9C8" rx="0" transform="matrix(-.2289 1.01295 -1.00322 .07083 222.646 89.445)"/><rect x="864" y="1244" width="9" height="23" fill="#CE97B0" rx="0" transform="matrix(-.46127 .79876 -.90435 -.6019 2605.78 1332.633)"/><rect x="1974" y="431" width="7" height="14" fill="#CE97B0" rx="0" transform="matrix(.80323 .8717 -.6054 .58797 673.145 -900.792)"/><rect x="628" y="725" width="13" height="16" fill="#AFB9C8" rx="0" transform="matrix(-.09745 .96656 -1.00666 -.27716 1625.274 256.186)"/><rect x="662" y="783" width="7" height="11" fill="#F4A9A8" rx="0" transform="matrix(.97874 .24192 -.20804 .9703 205.72 -137.577)"/><rect x="101" y="1379" width="13" height="38" fill="#F4A9A8" rx="0" transform="matrix(.51795 .90475 -.84137 .461 1571.884 637.314)"/><rect x="291" y="1359" width="10" height="21" fill="#AFB9C8" rx="0" transform="matrix(.05275 .98784 -1.00396 .15646 1535.941 857.663)"/><rect x="1289" y="252" width="10" height="17" fill="#F4A9A8" rx="0" transform="matrix(-.65084 .78298 -.75013 -.63405 2340.483 -746.393)"/><rect x="973" y="393" width="8" height="12" fill="#FBC6A4" rx="0" transform="matrix(-.98722 .20906 -.13887 -.98354 2007.274 484.495)"/><rect x="440" y="851" width="11" height="24" fill="#AFB9C8" rx="0" transform="matrix(-.93696 .47126 -.35978 -.88632 1144.631 1378.97)"/><rect x="554" y="1074" width="11" height="29" fill="#CE97B0" rx="0" transform="matrix(.26168 1.00137 -.98033 .07002 1599.727 500.96)"/><rect x="494" y="791" width="10" height="19" fill="#CE97B0" rx="0" transform="matrix(.79802 .63018 -.60137 .77821 567.756 -110.77)"/><rect x="1305" y="844" width="7" height="13" fill="#FBC6A4" rx="0" transform="matrix(-.8861 .29398 -.50324 -.96157 3127.637 1146.113)"/><rect x="876" y="323" width="7" height="19" fill="#CE97B0" rx="0" transform="matrix(-.82615 .37466 -.62427 -.92733 1904.609 295.967)"/><rect x="585" y="63" width="10" height="22" fill="#F4A9A8" rx="0" transform="matrix(-.84799 .58073 -.51093 -.82936 1126.42 -300.702)"/><rect x="1445" y="135" width="9" height="10" fill="#FBC6A4" rx="0" transform="matrix(.01746 1 -.99724 .15838 1562.248 -1561.252)"/><rect x="632" y="964" width="7" height="9" fill="#AFB9C8" rx="0" transform="matrix(1.04215 .31134 -.00455 .9582 181.052 -79.341)"/><rect x="1479" y="1102" width="7" height="14" fill="#F4A9A8" rx="0" transform="matrix(.32526 .94682 -.94418 .32601 2101.445 -733.9)"/><rect x="1902" y="197" width="9" height="20" fill="#CE97B0" rx="0" transform="matrix(-.38444 .82228 -.94694 -.57577 2887.978 -1074.698)"/><rect x="868" y="1265" width="13" height="28" fill="#F4A9A8" rx="0" transform="matrix(-.37675 .84912 -.93302 -.55143 2790.003 1103.21)"/><rect x="1311" y="1366" width="8" height="14" fill="#CE97B0" rx="0" transform="matrix(.96832 -.08801 .29405 1.00598 47.046 -77.292)"/><rect x="1302" y="1316" width="13" height="25" fill="#F4A9A8" rx="0" transform="matrix(1.00502 .47062 -.23469 .8851 581.231 -371.665)"/><rect x="1842" y="1022" width="13" height="18" fill="#F4A9A8" rx="0" transform="matrix(.34034 .96157 -.93591 .29398 2120.097 -855.277)"/><rect x="90" y="825" width="12" height="30" fill="#CE97B0" rx="0" transform="matrix(-.9032 .1093 -.55545 -1.03996 786.972 1732.426)"/><rect x="479" y="814" width="10" height="17" fill="#CE97B0" rx="0" transform="matrix(.52722 .82228 -.84696 .57577 803.905 -6.708)"/><rect x="278" y="247" width="12" height="16" fill="#F4A9A8" rx="0" transform="matrix(1.03327 .24645 .08658 .98846 12.07 -11.844)"/><rect x="761" y="136" width="9" height="26" fill="#AFB9C8" rx="0" transform="matrix(1.0547 .19127 .19786 .98402 -5.545 -90.512)"/><rect x="986" y="166" width="12" height="21" fill="#AFB9C8" rx="0" transform="matrix(.00135 1.00736 -.99267 .01758 1171.618 -947.703)"/><rect x="1955" y="647" width="12" height="21" fill="#CE97B0" rx="0" transform="matrix(.52853 .87796 -.84603 .48666 1451.86 -1212.595)"/><rect x="10" y="1265" width="7" height="15" fill="#CE97B0" rx="0" transform="matrix(-.96976 .08801 -.27767 -1.00598 446.718 2553.325)"/><rect x="1109" y="1083" width="7" height="19" fill="#F4A9A8" rx="0" transform="matrix(-.27448 .92945 -.965 -.37552 2651.056 390.953)"/><rect x="1053" y="326" width="10" height="13" fill="#FBC6A4" rx="0" transform="matrix(.0347 .9939 -1.0104 -.12204 1398.01 -623.03)"/><rect x="567" y="1222" width="10" height="24" fill="#CE97B0" rx="0" transform="matrix(.08716 1.00076 -.9962 .03495 1751.451 648.416)"/><rect x="1715" y="212" width="13" height="37" fill="#FBC6A4" rx="0" transform="matrix(-.32557 .93415 -.94552 -.35859 2499.908 -1234.868)"/><rect x="1874" y="551" width="9" height="12" fill="#FBC6A4" rx="0" transform="matrix(.956 .2255 -.2937 .97675 149.514 -279.294)"/><rect x="489" y="1222" width="13" height="24" fill="#F4A9A8" rx="0" transform="matrix(.73575 .473 -.73043 .88958 825.43 -158.95)"/><rect x="153" y="986" width="7" height="8" fill="#AFB9C8" rx="0" transform="matrix(.6052 .96573 -.83885 .31378 1035.26 555.812)"/><rect x="1220" y="422" width="8" height="9" fill="#CE97B0" rx="0" transform="matrix(-.60399 .6019 -.85987 -.79876 2466.942 51.801)"/><rect x="1882" y="1219" width="11" height="15" fill="#CE97B0" rx="0" transform="matrix(.9063 .63186 -.42262 .80874 695.185 -522.282)"/><rect x="94" y="241" width="10" height="20" fill="#CE97B0" rx="0" transform="matrix(-.1741 .99269 -.9829 -.13951 335.834 194.665)"/><rect x="74" y="847" width="7" height="15" fill="#CE97B0" rx="0" transform="matrix(.44762 .78298 -.91469 .63405 735.6 242.51)"/><rect x="445" y="261" width="12" height="32" fill="#F4A9A8" rx="0" transform="matrix(-.5756 .86616 -.8222 -.50008 919.528 17.012)"/><rect x="352" y="874" width="13" height="36" fill="#AFB9C8" rx="0" transform="matrix(-.58394 .9323 -.8367 -.37667 1209.281 856.083)"/><rect x="106" y="173" width="7" height="15" fill="#FBC6A4" rx="0" transform="matrix(-.04838 .90374 -1.08291 -.44079 372.65 172.61)"/><rect x="850" y="1174" width="9" height="16" fill="#AFB9C8" rx="0" transform="matrix(-.8626 .36034 -.528 -.93872 2528.86 1893.847)"/><rect x="1739" y="870" width="9" height="16" fill="#FBC6A4" rx="0" transform="matrix(1.04292 .6887 -.33361 .73854 582.966 -726.156)"/><rect x="745" y="518" width="10" height="19" fill="#AFB9C8" rx="0" transform="matrix(-.45661 .8086 -.89264 -.60932 1696.124 123.683)"/><rect x="1553" y="1303" width="12" height="21" fill="#CE97B0" rx="0" transform="matrix(-.33686 .93415 -.9344 -.37742 3489.208 161.485)"/><rect x="1561" y="815" width="11" height="25" fill="#CE97B0" rx="0" transform="matrix(.90508 .32577 -.44114 .9461 446.126 -520.41)"/><rect x="769" y="625" width="7" height="11" fill="#F4A9A8" rx="0" transform="matrix(.18028 .98829 -1.0404 -.15653 1490.217 -7.286)"/><rect x="64" y="282" width="8" height="13" fill="#FBC6A4" rx="0" transform="matrix(-.92441 .10686 -.56252 -1.01674 368.682 589.017)"/><rect x="1947" y="656" width="11" height="15" fill="#F4A9A8" rx="0" transform="matrix(1.01129 .8834 -.52434 .5308 721.94 -926.731)"/><rect x="1227" y="643" width="11" height="24" fill="#FBC6A4" rx="0" transform="matrix(1.02365 .66546 -.28278 .79307 329.801 -354.395)"/><rect x="1503" y="1221" width="12" height="12" fill="#F4A9A8" rx="0" transform="matrix(.95948 .12307 -.31135 1.0023 389.984 -400.607)"/><rect x="998" y="824" width="12" height="16" fill="#CE97B0" rx="0" transform="matrix(-.85458 .42789 -.50442 -.9176 2449.468 1006.832)"/><rect x="1755" y="901" width="8" height="11" fill="#CE97B0" rx="0" transform="matrix(.9496 .19186 -.32684 .98703 359.726 -510.607)"/><rect x="466" y="1194" width="10" height="23" fill="#AFB9C8" rx="0" transform="matrix(-.84075 .5339 -.52753 -.85442 1643.845 1926.202)"/><rect x="1135" y="607" width="9" height="15" fill="#FBC6A4" rx="0" transform="matrix(.33435 .85129 -.96577 .53194 1279.62 -782.115)"/><rect x="1168" y="287" width="12" height="35" fill="#F4A9A8" rx="0" transform="matrix(.99255 0 -.13946 1.00751 48.416 -146.436)"/><rect x="800" y="795" width="11" height="11" fill="#FBC6A4" rx="0" transform="matrix(-.65606 .6625 -.75471 -.76213 1938.1 990.139)"/><rect x="1625" y="1191" width="8" height="17" fill="#F4A9A8" rx="0" transform="matrix(-.55854 .60264 -.91816 -.79973 4082.606 1262.448)"/><rect x="483" y="199" width="12" height="35" fill="#F4A9A8" rx="0" transform="matrix(.75353 .68673 -.6193 .7627 196.52 -171.54)"/><rect x="1253" y="999" width="7" height="18" fill="#CE97B0" rx="0" transform="matrix(.24788 1.00598 -1.01574 -.08801 2199.163 9.286)"/><rect x="1076" y="1092" width="11" height="16" fill="#F4A9A8" rx="0" transform="matrix(-.93842 .0365 -.5287 -1.04505 2956.073 2540.74)"/><rect x="492" y="1206" width="13" height="37" fill="#AFB9C8" rx="0" transform="matrix(.06382 .95529 -1.07522 -.42532 2050.937 1421.502)"/><rect x="83" y="863" width="7" height="20" fill="#FBC6A4" rx="0" transform="matrix(-.7826 .46954 -.65787 -.88308 929.712 1601.805)"/><rect x="1919" y="725" width="10" height="13" fill="#AFB9C8" rx="0" transform="matrix(-.82848 .43897 -.5794 -.90003 4029.316 646.12)"/><rect x="179" y="36" width="10" height="26" fill="#F4A9A8" rx="0" transform="matrix(-.8414 .38039 -.54635 -.94149 367.012 57.586)"/><rect x="1379" y="449" width="7" height="17" fill="#AFB9C8" rx="0" transform="matrix(1.03914 .12233 .28883 .99634 1.7 -46.5)"/><rect x="462" y="1276" width="8" height="13" fill="#CE97B0" rx="0" transform="matrix(-.75446 .54764 -.66425 -.84329 1977.028 2059.841)"/><rect x="1152" y="87" width="12" height="27" fill="#F4A9A8" rx="0" transform="matrix(-.85122 .3908 -.55356 -.92065 2214.954 -279.724)"/><rect x="928" y="1244" width="12" height="13" fill="#AFB9C8" rx="0" transform="matrix(.05468 .96573 -1.01772 .31378 2060.59 -208.566)"/><rect x="1423" y="555" width="7" height="10" fill="#AFB9C8" rx="0" transform="matrix(.3023 .96823 -.9404 .29602 1411.44 -761.007)"/><rect x="1675" y="732" width="11" height="19" fill="#CE97B0" rx="0" transform="matrix(.34202 .95762 -.9397 .29277 1802.517 -996.795)"/><rect x="1529" y="962" width="9" height="25" fill="#F4A9A8" rx="0" transform="matrix(-.77767 .80648 -.65394 -.60773 3296.909 114.47)"/><rect x="1962" y="814" width="11" height="31" fill="#FBC6A4" rx="0" transform="matrix(-.96881 -.05503 -.31385 -1.05002 4210.946 2448.042)"/><rect x="161" y="326" width="7" height="18" fill="#F4A9A8" rx="0" transform="matrix(.0835 .96788 -1.06864 -.41084 577.25 366.865)"/><rect x="310" y="48" width="12" height="20" fill="#F4A9A8" rx="0" transform="matrix(1.02158 .21112 .0695 .99324 1.102 -10.602)"/><rect x="1559" y="401" width="11" height="21" fill="#F4A9A8" rx="0" transform="matrix(.96253 .7756 -.48168 .6508 433.49 -821.927)"/><rect x="557" y="338" width="7" height="12" fill="#FBC6A4" rx="0" transform="matrix(-.02068 1.00554 -.99158 -.14132 983.496 -269.825)"/><rect x="1365" y="414" width="7" height="12" fill="#AFB9C8" rx="0" transform="matrix(.58564 .92656 -.80618 .43206 893.235 -738.572)"/><rect x="384" y="1111" width="12" height="29" fill="#CE97B0" rx="0" transform="matrix(.94913 .22526 -.32819 .9757 207.713 -40.07)"/><rect x="728" y="575" width="10" height="29" fill="#FBC6A4" rx="0" transform="matrix(.96441 .21112 -.19947 .99324 224.831 -280.011)"/><rect x="999" y="673" width="11" height="15" fill="#FBC6A4" rx="0" transform="matrix(.89764 .26136 -.47607 .97542 379.602 -386.984)"/><rect x="250" y="720" width="13" height="19" fill="#FBC6A4" rx="0" transform="matrix(-.69096 .62516 -.7152 -.80017 928.418 1198.096)"/><rect x="111" y="95" width="13" height="31" fill="#AFB9C8" rx="0" transform="matrix(-.10376 .99497 -.99232 -.12217 248.291 -1.126)"/><rect x="1870" y="393" width="8" height="8" fill="#FBC6A4" rx="0" transform="matrix(-.9248 .37552 -.37401 -.92945 3774.15 -68.779)"/><rect x="305" y="77" width="11" height="17" fill="#AFB9C8" rx="0" transform="matrix(-.98068 .517 -.3021 -.86044 631.59 -28.628)"/><rect x="66" y="771" width="9" height="20" fill="#CE97B0" rx="0" transform="matrix(-1.0244 .2082 .01628 -.97949 -7.051 1527.609)"/><rect x="288" y="934" width="10" height="12" fill="#AFB9C8" rx="0" transform="matrix(-.98867 .08728 -.15738 -.99756 844.155 1836.781)"/><rect x="1413" y="266" width="13" height="27" fill="#F4A9A8" rx="0" transform="matrix(.96145 .19084 -.2938 .98178 114.553 -290.579)"/><rect x="810" y="1005" width="13" height="38" fill="#CE97B0" rx="0" transform="matrix(.20786 .9576 -1.1325 -.40648 2239.679 892.48)"/><rect x="1964" y="279" width="9" height="13" fill="#FBC6A4" rx="0" transform="matrix(.4739 .99269 -.94077 .13951 1417.597 -1570.783)"/><rect x="163" y="1182" width="10" height="15" fill="#F4A9A8" rx="0" transform="matrix(.6637 .64367 -.76262 .7671 839.543 160.099)"/><rect x="773" y="317" width="11" height="13" fill="#FBC6A4" rx="0" transform="matrix(.76726 .97887 -.7574 .33705 539.307 -338.99)"/><rect x="1487" y="900" width="7" height="15" fill="#AFB9C8" rx="0" transform="matrix(-.74729 .83106 -.69923 -.56056 3111.656 73.283)"/><rect x="760" y="382" width="12" height="22" fill="#CE97B0" rx="0" transform="matrix(-.8604 .53513 -.49178 -.85638 1530.06 427.305)"/><rect x="1719" y="947" width="12" height="33" fill="#FBC6A4" rx="0" transform="matrix(.33747 1.0267 -1.00353 -.08982 2355.493 -290.907)"/><rect x="1709" y="79" width="11" height="30" fill="#AFB9C8" rx="0" transform="matrix(-.90473 .34538 -.40961 -.94893 3272.934 -649.914)"/><rect x="820" y="178" width="7" height="20" fill="#FBC6A4" rx="0" transform="matrix(-.64688 .63716 -.77062 -.78683 1512.203 -58.351)"/><rect x="1922" y="304" width="8" height="22" fill="#FBC6A4" rx="0" transform="matrix(.34685 .85638 -.95097 .53513 1554.417 -1773.64)"/><rect x="1986" y="569" width="11" height="30" fill="#FBC6A4" rx="0" transform="matrix(.97244 .64318 -.39587 .76651 473.475 -1074.99)"/><rect x="1338" y="806" width="7" height="12" fill="#FBC6A4" rx="0" transform="matrix(-.99403 -.10773 -.17497 -1.02497 2857.1 2123.265)"/><rect x="966" y="285" width="8" height="17" fill="#CE97B0" rx="0" transform="matrix(-.8617 .47532 -.4832 -.89395 1972.335 -58.821)"/><rect x="325" y="1113" width="8" height="10" fill="#FBC6A4" rx="0" transform="matrix(1.02537 .25917 -.03166 .96725 342.688 -65.898)"/><rect x="1308" y="96" width="12" height="24" fill="#FBC6A4" rx="0" transform="matrix(1.08089 .59141 -.08838 .8768 12.202 -311.367)"/><rect x="688" y="55" width="13" height="21" fill="#FBC6A4" rx="0" transform="matrix(.98204 -.14132 .08857 1.00554 -.32 -24.675)"/><rect x="1514" y="979" width="7" height="12" fill="#F4A9A8" rx="0" transform="matrix(-.75696 .43844 -.72882 -.89893 3693.323 1231.606)"/><rect x="727" y="423" width="7" height="12" fill="#AFB9C8" rx="0" transform="matrix(-.83266 .44079 -.56148 -.90374 1597.291 571.491)"/><rect x="854" y="1196" width="9" height="24" fill="#FBC6A4" rx="0" transform="matrix(.72814 .95814 -.76419 .3678 1404.48 139.344)"/><rect x="1242" y="69" width="10" height="22" fill="#AFB9C8" rx="0" transform="matrix(.94513 .83082 -.49142 .62607 184.89 -648.547)"/><rect x="840" y="38" width="13" height="28" fill="#FBC6A4" rx="0" transform="matrix(.46436 .97089 -.9142 .24207 516.813 -752.883)"/><rect x="119" y="897" width="11" height="26" fill="#F4A9A8" rx="0" transform="matrix(-.3908 .93486 -.91966 -.35886 929.86 1126.697)"/><rect x="921" y="597" width="12" height="26" fill="#AFB9C8" rx="0" transform="matrix(.19918 1.00367 -.99287 .01752 1489.733 -412.188)"/><rect x="1349" y="1264" width="7" height="17" fill="#AFB9C8" rx="0" transform="matrix(-.75825 .51315 -.63542 -.8888 3103.545 2021.716)"/><rect x="1114" y="710" width="9" height="15" fill="#AFB9C8" rx="0" transform="matrix(.63773 .8977 -.78902 .4574 1046.108 -477.425)"/><rect x="1117" y="437" width="10" height="11" fill="#FBC6A4" rx="0" transform="matrix(.13919 .98496 -.99073 .17367 1380.01 -719.89)"/><rect x="246" y="98" width="7" height="20" fill="#CE97B0" rx="0" transform="matrix(.17537 .99708 -.972 .17581 321.567 -199.277)"/><rect x="1507" y="191" width="7" height="19" fill="#F4A9A8" rx="0" transform="matrix(.6368 .94893 -.82205 .34538 786.23 -1089.817)"/><rect x="633" y="687" width="12" height="20" fill="#F4A9A8" rx="0" transform="matrix(.74511 .97284 -.75672 .35409 843.394 -.224)"/><rect x="1601" y="80" width="11" height="14" fill="#CE97B0" rx="0" transform="matrix(-.78662 .58922 -.61447 -.811 2916.703 -676.69)"/><rect x="895" y="1059" width="7" height="11" fill="#F4A9A8" rx="0" transform="matrix(1.01621 .3558 -.01852 .97756 74.444 -38.163)"/><rect x="1321" y="1112" width="11" height="26" fill="#AFB9C8" rx="0" transform="matrix(.74597 .83745 -.67176 .58639 1117.26 -363.614)"/><rect x="199" y="671" width="8" height="13" fill="#AFB9C8" rx="0" transform="matrix(.1049 1.00613 -.9994 -.05273 883.333 533.905)"/><rect x="1212" y="766" width="9" height="26" fill="#FBC6A4" rx="0" transform="matrix(.43882 1.01295 -.95653 .07083 1620.927 -293.934)"/><rect x="1001" y="505" width="9" height="26" fill="#CE97B0" rx="0" transform="matrix(-.42872 .90211 -.89007 -.45965 1960.887 -310.232)"/><rect x="702" y="1047" width="10" height="15" fill="#F4A9A8" rx="0" transform="matrix(1.04722 .48547 -.1706 .87582 480.242 -175.23)"/><rect x="1899" y="1113" width="7" height="18" fill="#CE97B0" rx="0" transform="matrix(.36792 1.04362 -.91302 .12814 2135.739 -389.11)"/><rect x="1492" y="1227" width="12" height="28" fill="#AFB9C8" rx="0" transform="matrix(.10827 1.00536 -.99278 .01755 2778.484 -444.246)"/><rect x="343" y="169" width="12" height="35" fill="#AFB9C8" rx="0" transform="matrix(1.0095 .44816 -.16153 .91887 49.615 -67.097)"/><rect x="161" y="135" width="13" height="26" fill="#FBC6A4" rx="0" transform="matrix(.85212 .66099 -.53264 .76038 109.487 -54.685)"/><rect x="202" y="1368" width="7" height="7" fill="#FBC6A4" rx="0" transform="matrix(-.86563 .4851 -.49976 -.87515 1044.747 2479.26)"/><rect x="523" y="1386" width="12" height="31" fill="#FBC6A4" rx="0" transform="matrix(-.38213 .71018 -1.0124 -.73541 2527.486 2168.936)"/><rect x="435" y="300" width="9" height="24" fill="#F4A9A8" rx="0" transform="matrix(.01341 .96056 -1.04703 -.42767 816.122 166.07)"/><rect x="1556" y="56" width="12" height="31" fill="#F4A9A8" rx="0" transform="matrix(.14496 .93073 -1.01586 .37604 1418.528 -1545.837)"/><rect x="503" y="587" width="7" height="17" fill="#FBC6A4" rx="0" transform="matrix(1.00291 -.05299 -.26467 1.01108 74.521 -59.98)"/><rect x="810" y="333" width="13" height="35" fill="#FBC6A4" rx="0" transform="matrix(-.98706 -.07257 -.33533 -1.03777 1811.75 1007.616)"/><rect x="1115" y="734" width="13" height="21" fill="#AFB9C8" rx="0" transform="matrix(-.8919 .19754 -.47386 -1.01626 2511.042 1580.066)"/><rect x="337" y="178" width="9" height="13" fill="#CE97B0" rx="0" transform="matrix(-.17507 .99517 -.95465 -.28536 533.705 -11.197)"/><rect x="1204" y="1203" width="13" height="22" fill="#FBC6A4" rx="0" transform="matrix(.74703 .74326 -.6728 .66923 1231.07 -477.033)"/><rect x="1502" y="172" width="12" height="15" fill="#F4A9A8" rx="0" transform="matrix(-.68687 .64318 -.7362 -.76651 2696.264 -600.165)"/><rect x="545" y="867" width="12" height="33" fill="#F4A9A8" rx="0" transform="matrix(.1194 1.00737 -1.00104 -.07044 1631.53 313.238)"/><rect x="1243" y="211" width="10" height="24" fill="#CE97B0" rx="0" transform="matrix(.64499 .82228 -.7645 .57577 633.605 -1040.789)"/><rect x="283" y="451" width="12" height="32" fill="#FBC6A4" rx="0" transform="matrix(-.97906 .12194 -.22673 -.99315 742.046 885.468)"/><rect x="1219" y="1149" width="8" height="23" fill="#FBC6A4" rx="0" transform="matrix(.09231 .94149 -1.02485 .38039 2183.432 -648.024)"/><rect x="996" y="1134" width="12" height="13" fill="#F4A9A8" rx="0" transform="matrix(.098 1.0457 -.9666 -.1099 1852.112 543.626)"/><rect x="1816" y="714" width="8" height="9" fill="#CE97B0" rx="0" transform="matrix(-.27435 .94199 -.96173 -.34286 3093.411 -876.842)"/><rect x="293" y="31" width="7" height="17" fill="#FBC6A4" rx="0" transform="matrix(.81826 .7171 -.51704 .769 57.63 -107.155)"/><rect x="965" y="1126" width="11" height="16" fill="#CE97B0" rx="0" transform="matrix(-.8613 .29237 -.6031 -.9563 2858.766 1934.703)"/><rect x="704" y="1324" width="13" height="28" fill="#AFB9C8" rx="0" transform="matrix(-.94808 .36034 -.30531 -.93872 1568.87 2412.665)"/><rect x="1461" y="1306" width="11" height="15" fill="#CE97B0" rx="0" transform="matrix(-.37531 .94913 -.92437 -.32681 3028.419 479.17)"/><rect x="347" y="172" width="7" height="11" fill="#AFB9C8" rx="0" transform="matrix(.98616 .12187 -.17389 .99255 26.414 -41.392)"/><rect x="1432" y="1195" width="13" height="24" fill="#FBC6A4" rx="0" transform="matrix(-.98736 -.1093 -.24531 -1.03996 3241.206 3059.264)"/><rect x="1941" y="724" width="10" height="21" fill="#FBC6A4" rx="0" transform="matrix(.5766 .91521 -.82377 .42677 1464.195 -1086.479)"/><rect x="1972" y="925" width="9" height="16" fill="#FBC6A4" rx="0" transform="matrix(-1.02985 -.28982 -.14113 -1.01073 4309.24 3091.049)"/><rect x="1191" y="458" width="9" height="23" fill="#F4A9A8" rx="0" transform="matrix(-.18677 .87632 -1.02892 -.52654 2016.472 -76.813)"/><rect x="1568" y="845" width="9" height="22" fill="#AFB9C8" rx="0" transform="matrix(-.64743 .5886 -.80787 -.81013 3533.464 541.497)"/><rect x="1468" y="846" width="13" height="27" fill="#FBC6A4" rx="0" transform="matrix(.44267 .9927 -.953 .12189 1911.532 -683.257)"/><rect x="1399" y="475" width="10" height="11" fill="#F4A9A8" rx="0" transform="matrix(.82407 .7283 -.57725 .70332 548.923 -657.615)"/><rect x="1904" y="1218" width="7" height="9" fill="#AFB9C8" rx="0" transform="matrix(1.02382 .15646 .07265 .98784 162.259 -316.873)"/><rect x="1093" y="403" width="13" height="24" fill="#CE97B0" rx="0" transform="matrix(1.03967 .30902 -.0363 .95106 90.454 -319.453)"/><rect x="1799" y="600" width="10" height="13" fill="#AFB9C8" rx="0" transform="matrix(.84578 .66618 -.52814 .76635 692.249 -1378.175)"/><rect x="1525" y="162" width="7" height="9" fill="#AFB9C8" rx="0" transform="matrix(-.27664 .9761 -.94517 -.27989 2031.833 -1009.337)"/><rect x="254" y="874" width="13" height="23" fill="#CE97B0" rx="0" transform="matrix(.57185 .91266 -.81679 .44513 818.538 299.52)"/><rect x="1429" y="1292" width="9" height="20" fill="#CE97B0" rx="0" transform="matrix(-.38167 .9854 -.94751 -.17375 2993.525 65.586)"/><rect x="990" y="1330" width="11" height="28" fill="#AFB9C8" rx="0" transform="matrix(.93065 .35102 -.29192 .96441 183.869 -71.775)"/><rect x="1451" y="556" width="13" height="34" fill="#F4A9A8" rx="0" transform="matrix(-.71707 .58242 -.69288 -.83179 3002.322 -56.266)"/><rect x="26" y="495" width="11" height="12" fill="#F4A9A8" rx="0" transform="matrix(.5311 1.04733 -1.02945 -.1472 696.835 552.599)"/><rect x="1473" y="36" width="12" height="14" fill="#AFB9C8" rx="0" transform="matrix(-.03515 .9846 -1.00421 -.31992 1581.835 -1003.18)"/></svg>